<svg id="Capa_1" enable-background="new 0 0 511.983 511.983" height="512" viewBox="0 0 511.983 511.983" width="512" xmlns="http://www.w3.org/2000/svg"><g><g><g><path d="m251.594 294.977c-11.356 9.279-28.084 7.587-37.352-3.779l-201.372-246.697v-.01l40.874-33.89 201.629 247.023c9.278 11.356 7.587 28.084-3.779 37.353z" fill="#407093"/><path d="m259.626 283.819c-1.592 4.234-4.273 8.102-8.032 11.158-11.346 9.269-28.084 7.577-37.352-3.779l-201.372-246.697v-.01l20.437-16.945 201.5 246.865c6.202 7.597 15.768 10.881 24.819 9.408z" fill="#2b4d66"/><path d="m503.871 275.829c-4.419 25.2-12.833 55.755-28.85 83.497-5.313 9.207-11.459 18.089-18.587 26.371-5.043 5.869-11.416 10.42-18.583 13.334-39.956 16.211-183.297 64.244-212.76-66.68l-41.458-50.787c-8.757-10.714-7.157-26.51 3.574-35.248l25.366-20.712c10.732-8.757 26.51-7.157 35.267 3.557l21.755 26.654c8.842 10.844 23.461 15.076 36.759 10.716 42.193-13.809 95.838-28.853 151.439-37.888 27.472-4.452 50.881 19.77 46.078 47.186z" fill="#80b4fb"/><path d="m475.021 359.326c-5.313 9.207-11.459 18.089-18.587 26.371-5.043 5.869-11.416 10.42-18.583 13.334-39.956 16.211-183.297 64.244-212.76-66.68l-41.458-50.787c-8.757-10.714-7.157-26.51 3.574-35.248l25.366-20.712c-25.366 20.711 82.488 234.557 262.448 133.722z" fill="#7398d3"/></g><g><circle cx="211.394" cy="415.876" fill="#f1f1f4" r="85.506"/><path d="m224.586 500.371c-4.301.664-8.706 1.01-13.19 1.01-47.223 0-85.509-38.281-85.509-85.504s38.285-85.504 85.509-85.504c4.484 0 8.89.345 13.19 1.01-40.965 6.342-72.318 41.756-72.318 84.495s31.354 78.151 72.318 84.493z" fill="#dddaec"/></g><g><g fill="#dd636e"><path d="m81.597 373.629-1.285-2.226c-4.533-7.852-14.372-10.853-22.516-6.867l-25.05 12.259c-8.972 4.391-12.349 15.462-7.355 24.113l3.194 5.532c4.995 8.651 16.271 11.262 24.56 5.687l23.141-15.564c7.524-5.061 9.845-15.082 5.311-22.934z"/><path d="m69.815 302.248v-2.571c0-9.067-7.02-16.585-16.066-17.205l-27.823-1.909c-9.966-.684-18.426 7.216-18.426 17.205v6.388c0 9.989 8.46 17.889 18.426 17.205l27.823-1.909c9.045-.619 16.066-8.138 16.066-17.204z"/><path d="m80.312 230.522 1.285-2.226c4.533-7.852 2.213-17.873-5.311-22.933l-23.141-15.564c-8.289-5.575-19.566-2.964-24.56 5.687l-3.194 5.532c-4.995 8.651-1.618 19.722 7.355 24.113l25.05 12.259c8.144 3.984 17.983.984 22.516-6.868z"/></g></g></g><g><path d="m82.01 57.095c1.483 1.816 3.64 2.758 5.815 2.758 1.667 0 3.346-.553 4.738-1.69 3.208-2.619 3.687-7.344 1.066-10.553l-34.078-41.751c-2.621-3.208-7.344-3.688-10.554-1.067-3.208 2.619-3.687 7.344-1.066 10.553z"/><path d="m498.063 234.801c-10.972-11.111-26.09-16.051-41.472-13.553-47.413 7.694-98.749 20.534-152.58 38.162-10.291 3.369-21.787.02-28.604-8.338l-21.754-26.65c-6.474-7.929-15.935-12.008-25.451-11.953l-115.802-141.87c-2.62-3.208-7.344-3.688-10.553-1.067-3.209 2.619-3.688 7.344-1.068 10.553l111.531 136.637c-1.549.883-3.048 1.898-4.474 3.063l-25.329 20.678-163.826-200.705c-2.621-3.209-7.347-3.686-10.553-1.067-3.209 2.619-3.688 7.344-1.068 10.553l166.118 203.509c-1.317 3.043-2.178 6.3-2.522 9.693-.877 8.655 1.67 17.132 7.17 23.869l29.899 36.635c-49.588 1.932-89.335 42.869-89.335 92.921 0 9.217 1.347 18.331 4.004 27.087 1.202 3.964 5.39 6.203 9.354 5 3.963-1.202 6.202-5.391 4.999-9.354-2.228-7.344-3.357-14.992-3.357-22.733 0-43.009 34.99-78 78-78 43.016 0 78.011 34.991 78.011 78 0 43.015-34.995 78.01-78.011 78.01-24.664 0-47.349-11.293-62.237-30.983-2.497-3.304-7.201-3.958-10.506-1.459-3.304 2.498-3.957 7.202-1.459 10.506 17.75 23.474 44.796 36.937 74.202 36.937 48.084 0 87.764-36.677 92.531-83.524 10.632 2.257 21.564 3.225 32.454 3.225 42.856 0 84.92-14.742 104.294-22.604 8.271-3.366 15.691-8.688 21.456-15.392 30.398-35.353 43.498-81.213 49.134-113.456 2.699-15.405-2.234-31.229-13.196-42.33zm-1.581 39.743c-5.312 30.391-17.558 73.496-45.731 106.261-4.219 4.906-9.66 8.806-15.73 11.275-66.277 26.898-110.797 22.607-130.808 17.961-2.667-42.896-34.543-78.006-75.933-85.629l-38.834-47.583c-2.967-3.633-4.34-8.204-3.866-12.871.473-4.668 2.735-8.873 6.371-11.841l25.373-20.714c7.499-6.123 18.584-4.999 24.711 2.504l21.752 26.647c10.707 13.127 28.746 18.396 44.894 13.11 53.094-17.387 103.667-30.041 150.315-37.611 10.528-1.709 20.878 1.676 28.395 9.287 7.669 7.768 10.983 18.411 9.091 29.204z"/><path d="m262.097 415.314c4.143 0 7.5-3.358 7.5-7.5v-.5c0-4.142-3.357-7.5-7.5-7.5s-7.5 3.358-7.5 7.5v.5c0 4.143 3.357 7.5 7.5 7.5z"/><path d="m254.597 428.422c0 4.142 3.357 7.5 7.5 7.5s7.5-3.358 7.5-7.5v-.5c0-4.142-3.357-7.5-7.5-7.5s-7.5 3.358-7.5 7.5z"/><path d="m254.597 449.029c0 4.142 3.357 7.5 7.5 7.5s7.5-3.358 7.5-7.5v-.5c0-4.142-3.357-7.5-7.5-7.5s-7.5 3.358-7.5 7.5z"/><path d="m241.489 456.529c4.143 0 7.5-3.358 7.5-7.5v-.5c0-4.142-3.357-7.5-7.5-7.5s-7.5 3.358-7.5 7.5v.5c0 4.142 3.358 7.5 7.5 7.5z"/><path d="m220.882 456.529c4.143 0 7.5-3.358 7.5-7.5v-.5c0-4.142-3.357-7.5-7.5-7.5s-7.5 3.358-7.5 7.5v.5c0 4.142 3.357 7.5 7.5 7.5z"/><path d="m213.382 469.636c0 4.142 3.357 7.5 7.5 7.5s7.5-3.358 7.5-7.5v-.5c0-4.142-3.357-7.5-7.5-7.5s-7.5 3.358-7.5 7.5z"/><path d="m233.989 469.636c0 4.142 3.357 7.5 7.5 7.5s7.5-3.358 7.5-7.5v-.5c0-4.142-3.357-7.5-7.5-7.5s-7.5 3.358-7.5 7.5z"/><path d="m170.191 382.174c0 4.142 3.357 7.5 7.5 7.5s7.5-3.358 7.5-7.5v-.5c0-4.142-3.357-7.5-7.5-7.5s-7.5 3.358-7.5 7.5z"/><path d="m177.691 369.067c4.143 0 7.5-3.358 7.5-7.5v-.5c0-4.142-3.357-7.5-7.5-7.5s-7.5 3.358-7.5 7.5v.5c0 4.142 3.358 7.5 7.5 7.5z"/><path d="m164.584 382.174v-.5c0-4.142-3.357-7.5-7.5-7.5s-7.5 3.358-7.5 7.5v.5c0 4.142 3.357 7.5 7.5 7.5s7.5-3.358 7.5-7.5z"/><path d="m88.092 369.877-1.285-2.225c-6.479-11.221-20.67-15.55-32.308-9.854l-25.05 12.259c-6.136 3.003-10.798 8.472-12.791 15.007s-1.178 13.676 2.238 19.594l3.194 5.531c3.415 5.917 9.191 10.194 15.847 11.735 1.833.425 3.697.633 5.556.633 4.888 0 9.73-1.445 13.838-4.208l23.143-15.564c10.75-7.232 14.098-21.686 7.619-32.906 0 0-.001-.001-.001-.002zm-15.99 20.462-23.142 15.564c-2.266 1.524-4.98 2.023-7.638 1.408-2.66-.616-4.876-2.257-6.241-4.622l-3.194-5.531c-1.365-2.365-1.678-5.105-.882-7.717.797-2.611 2.586-4.71 5.038-5.91l25.05-12.259c1.365-.668 2.82-.986 4.258-.986 3.386 0 6.675 1.765 8.467 4.869l1.286 2.226c2.549 4.419 1.231 10.11-3.002 12.958z"/><path d="m26.439 328.844 27.823-1.909c12.926-.886 23.052-11.731 23.052-24.688v-2.571c0-12.957-10.126-23.801-23.052-24.688l-27.823-1.908c-6.822-.467-13.589 1.939-18.582 6.601-4.993 4.663-7.857 11.256-7.857 18.087v6.388c0 6.832 2.864 13.424 7.857 18.087 4.584 4.28 10.666 6.658 16.905 6.658.558 0 1.118-.019 1.677-.057zm-8.344-17.564c-1.996-1.863-3.095-4.393-3.095-7.124v-6.388c0-2.73 1.099-5.26 3.095-7.123 1.826-1.706 4.158-2.623 6.629-2.623.229 0 .458.008.688.024l27.823 1.908c5.091.349 9.079 4.62 9.079 9.723v2.571c0 5.103-3.988 9.374-9.079 9.723l-27.823 1.909c-2.717.188-5.322-.737-7.317-2.6z"/><path d="m29.449 231.867 25.05 12.259c3.468 1.697 7.162 2.504 10.812 2.504 8.599 0 16.948-4.481 21.496-12.358l1.286-2.226c6.479-11.221 3.131-25.675-7.62-32.907l-23.142-15.564c-5.669-3.813-12.737-5.116-19.394-3.574-6.655 1.541-12.432 5.819-15.847 11.734l-3.194 5.533c-3.416 5.917-4.231 13.058-2.238 19.593 1.993 6.534 6.655 12.004 12.791 15.006zm2.438-27.099 3.194-5.533c1.365-2.364 3.581-4.005 6.241-4.621.742-.172 1.489-.257 2.229-.257 1.91 0 3.775.566 5.408 1.665l23.141 15.564c4.234 2.848 5.553 8.541 3.003 12.958l-1.286 2.226s-.001.001-.001.002c-2.552 4.42-8.142 6.123-12.724 3.881l-25.05-12.259c-2.452-1.2-4.241-3.299-5.038-5.91-.795-2.612-.483-5.352.883-7.716z"/></g></g></svg>